<?xml version="1.0" standalone="no"?><!DOCTYPE svg PUBLIC "-//W3C//DTD SVG 1.1//EN" "http://www.w3.org/Graphics/SVG/1.1/DTD/svg11.dtd"><svg t="1595122666127" class="icon" viewBox="0 0 1024 1024" version="1.1" xmlns="http://www.w3.org/2000/svg" p-id="1150" xmlns:xlink="http://www.w3.org/1999/xlink" width="200" height="200"><defs><style type="text/css"></style></defs><path d="M511.474223 960.791273h-0.055855a36.398545 36.398545 0 0 1-25.842036-10.6496 36.733673 36.733673 0 0 1 25.842036-62.687418 36.733673 36.733673 0 0 1 35.653818 37.701818 36.715055 36.715055 0 0 1-35.597963 35.6352m283.499054-484.612655a82.459927 82.459927 0 0 0 48.128-38.2976 82.478545 82.478545 0 0 0 8.005818-63.041163 83.223273 83.223273 0 0 0-80.114036-61.216582h-0.055855a83.167418 83.167418 0 0 0-83.037091 83.037091 82.944 82.944 0 0 0 60.360146 79.965091c-5.026909 34.071273-23.365818 71.773091-54.532655 112.137309-33.158982 42.840436-82.199273 77.451636-141.814691 100.091345-52.8384 20.033164-110.871273 29.472582-163.4304 26.642618-47.252945-2.606545-85.457455-15.471709-102.251054-34.443636-7.298327-8.247855-10.277236-16.942545-9.4208-27.368727 1.098473-12.511418 7.5776-26.884655 19.269818-42.728728 27.554909-2.308655 57.344-11.170909 88.585309-26.400581a110.517527 110.517527 0 0 1 41.555782-11.543273c10.388945-0.707491 18.748509-0.279273 37.292218 1.936291 12.101818 1.396364 16.5888 1.861818 23.309964 2.2528 34.108509 1.899055 60.471855-6.888727 88.101236-29.342255 36.957091-30.049745 45.000145-78.121891 23.924364-142.875927 9.979345-13.963636 15.453091-30.999273 15.453091-48.165236-0.018618-45.782109-37.2736-83.037091-83.037091-83.037091a83.167418 83.167418 0 0 0-83.037091 83.037091 83.1488 83.1488 0 0 0 83.037091 83.03709h0.055854c9.6256-0.018618 19.0464-1.675636 28.038982-4.9152 9.309091 36.733673 4.859345 61.924073-13.591273 76.930328-18.655418 15.173818-33.847855 20.349673-56.264145 19.027782a289.3824 289.3824 0 0 1-19.511855-1.936291l-0.856436-0.111709c-20.033164-2.345891-31.446109-3.239564-46.08-2.15971-20.014545 1.489455-39.098182 6.739782-58.349382 16.011637-35.728291 17.259055-67.081309 24.613236-93.202618 21.894982-20.666182-2.215564-36.603345-10.742691-47.327418-25.376582-21.894982-29.714618-8.192-72.331636 34.071273-106.496a82.906764 82.906764 0 0 0 33.549963 7.130763h0.186182a83.092945 83.092945 0 0 0 82.981236-83.03709c0-45.782109-37.236364-83.037091-83.03709-83.037091a83.1488 83.1488 0 0 0-83.037091 83.037091c0 17.128727 5.3248 33.885091 15.043491 47.5136-41.872291 37.087418-62.017164 89.088-51.330328 131.816727-13.889164-2.550691-26.642618-10.817164-37.981091-24.650473-17.352145-21.224727-29.844945-54.104436-34.257454-90.223709-4.449745-36.789527-0.093091-73.802473 11.915636-101.543564 12.6976-29.453964 32.507345-47.141236 58.852073-52.559127 9.942109-2.029382 17.333527-10.165527 18.394764-20.237964 5.138618-47.755636 20.219345-84.433455 44.813963-109.028072 20.163491-20.163491 46.359273-31.5392 75.794618-32.935564 55.221527-2.643782 108.506764 30.868945 116.717382 73.076364a23.086545 23.086545 0 0 0 27.163927 18.376145 23.179636 23.179636 0 0 0 18.376146-27.182545c-4.524218-23.458909-16.942545-45.521455-36.007564-63.953455 19.418764-16.663273 47.550836-25.488291 74.286546-23.1424 20.293818 1.750109 39.284364 9.681455 56.450327 23.533382 20.777891 16.719127 38.2976 41.797818 52.075055 74.491345 4.859345 11.766691 18.376145 17.370764 30.347636 12.436946 11.729455-4.877964 17.352145-18.413382 12.381091-30.347636a297.1648 297.1648 0 0 0-14.894546-30.496582c28.001745-6.423273 56.822691-5.846109 79.685819 1.675636 39.340218 13.032727 61.979927 45.074618 69.185163 97.913018 0.744727 6.144 3.835345 11.617745 8.694691 15.453091 4.859345 3.816727 10.984727 5.510982 17.054255 4.766255 6.144-0.744727 11.636364-3.835345 15.453091-8.694691 3.816727-4.859345 5.510982-10.928873 4.766254-17.054255l-0.093091-0.726109c-0.502691-3.723636-1.117091-7.503127-1.805963-11.282618 26.456436 12.790691 47.215709 32.060509 57.43709 53.545891 16.104727 33.792 15.639273 72.238545-1.303272 108.171636-4.114618 8.6016-2.4576 18.990545 4.133236 25.879273 30.533818 32.097745 37.124655 82.068945 15.639273 118.821236-11.115055 18.916073-28.914036 32.581818-51.497891 39.5264-26.456436 8.229236-58.610036 7.5776-95.604364-1.899054 14.503564-27.927273 23.309964-55.370473 26.195782-81.677964m180.279855-104.112873c18.152727-47.7184 16.384-98.676364-4.952437-143.676509-20.331055-42.579782-68.682473-79.220364-126.417454-95.8464-18.729891-36.230982-47.681164-60.993164-86.071855-73.634909-39.247127-12.939636-87.002764-12.064582-131.332654 2.327273-30.962036-35.206982-69.538909-55.780073-111.709091-59.522327-46.675782-4.096-94.505891 13.218909-125.486546 45.242182a194.038691 194.038691 0 0 0-96.386327-20.740655c-44.125091 2.085236-83.595636 19.325673-114.092218 49.840873-31.427491 31.520582-51.628218 75.291927-60.062255 130.141091-35.933091 12.660364-64.027927 40.420073-81.3056 80.356072-16.570182 38.278982-22.416291 86.053236-16.421236 134.5536 5.901964 48.500364 22.807273 91.917964 47.606691 122.2656 29.137455 35.560727 67.770182 51.032436 109.028073 43.715491a115.432727 115.432727 0 0 0 47.346036 26.381964c-22.341818 42.319127-19.698036 82.385455 7.596218 113.198545 27.405964 31.017891 78.605964 50.045673 144.141964 53.620364 63.264582 3.369891 132.747636-7.894109 195.621236-31.744a441.511564 441.511564 0 0 0 29.863564-12.455564c32.805236 12.101818 54.123055 40.5504 53.0432 70.879419-0.484073 15.080727-6.795636 29.621527-18.245818 42.114327-11.580509 12.641745-27.908655 22.974836-48.556219 30.72a89.032145 89.032145 0 0 0-119.063272-33.754764 88.808727 88.808727 0 0 0-46.824728 78.196364 88.306036 88.306036 0 0 0 25.544146 63.059782 88.361891 88.361891 0 0 0 62.6688 26.530909h0.688873a88.994909 88.994909 0 0 0 88.827345-85.922909c64.474764-22.676945 102.4-66.057309 104.187345-119.323928 1.266036-38.725818-17.687273-75.906327-50.939345-100.389236 36.994327-23.533382 68.123927-51.572364 92.532364-83.334982 5.026909-6.497745 9.923491-13.181673 14.596654-19.902836 1.582545 0.856436 3.2768 1.545309 5.064146 2.048 52.503273 14.894545 99.272145 16.235055 139.021963 4.002909 36.305455-11.282618 65.163636-33.698909 83.3536-64.847127 31.3344-53.564509 26.102691-123.2896-12.846545-174.098619" p-id="1151" fill="#13227a"></path></svg>